<mxfile host="app.diagrams.net" modified="2024-05-29T17:36:08.142Z" agent="Mozilla/5.0 (Windows NT 10.0; Win64; x64) AppleWebKit/537.36 (KHTML, like Gecko) Chrome/125.0.0.0 Safari/537.36" etag="9Q9T4T6t06e5rK6jtXVL" version="24.4.10" type="google">
  <diagram name="Page-1" id="EiQHPnZWbAOL3A7C1vi8">
    <mxGraphModel grid="1" page="1" gridSize="10" guides="1" tooltips="1" connect="1" arrows="1" fold="1" pageScale="1" pageWidth="700" pageHeight="1000" math="0" shadow="0">
      <root>
        <mxCell id="0" />
        <mxCell id="1" parent="0" />
        <mxCell id="4pFMJGTHoJNY8gUiROSh-1" value="&lt;b&gt;Explorer.exe&lt;/b&gt;&lt;br&gt;9135CD7CEBEFDB79EF6FC21D5FDEA5B170689508" style="rounded=1;whiteSpace=wrap;html=1;fillColor=#dae8fc;strokeColor=#6c8ebf;" vertex="1" parent="1">
          <mxGeometry x="40" y="360" width="320" height="40" as="geometry" />
        </mxCell>
        <mxCell id="4pFMJGTHoJNY8gUiROSh-2" value="&lt;b&gt;Unikey.exe&lt;/b&gt;&lt;br&gt;9135CD7CEBEFDB79EF6FC21D5FDEA5B170689508" style="rounded=1;whiteSpace=wrap;html=1;fillColor=#dae8fc;strokeColor=#6c8ebf;" vertex="1" parent="1">
          <mxGeometry x="440" y="120" width="320" height="40" as="geometry" />
        </mxCell>
        <mxCell id="4pFMJGTHoJNY8gUiROSh-3" value="&lt;b&gt;KeyLog.dll&lt;/b&gt;&lt;br&gt;239A496FD521708B539BD23A7ED0B7B4C2764B60" style="rounded=1;whiteSpace=wrap;html=1;fillColor=#dae8fc;strokeColor=#6c8ebf;" vertex="1" parent="1">
          <mxGeometry x="440" y="240" width="320" height="40" as="geometry" />
        </mxCell>
        <mxCell id="4pFMJGTHoJNY8gUiROSh-4" value="&lt;b&gt;Transfer.exe&lt;/b&gt;&lt;br&gt;CAC363B909160B0C1B6E7B0156AD800AA7E568E1" style="rounded=1;whiteSpace=wrap;html=1;fillColor=#dae8fc;strokeColor=#6c8ebf;" vertex="1" parent="1">
          <mxGeometry x="440" y="360" width="320" height="40" as="geometry" />
        </mxCell>
        <mxCell id="4pFMJGTHoJNY8gUiROSh-5" value="systeminfo.txt" style="rounded=1;whiteSpace=wrap;html=1;fillColor=#fff2cc;strokeColor=#d6b656;" vertex="1" parent="1">
          <mxGeometry x="440" y="480" width="160" height="40" as="geometry" />
        </mxCell>
        <mxCell id="4pFMJGTHoJNY8gUiROSh-6" value="screen.jpeg" style="rounded=1;whiteSpace=wrap;html=1;fillColor=#fff2cc;strokeColor=#d6b656;" vertex="1" parent="1">
          <mxGeometry x="440" y="600" width="160" height="40" as="geometry" />
        </mxCell>
        <mxCell id="4pFMJGTHoJNY8gUiROSh-8" value="&lt;b&gt;Location:&amp;nbsp;&lt;/b&gt;&quot;%appdata%\Explorer&quot;" style="rounded=1;whiteSpace=wrap;html=1;fillColor=#dae8fc;strokeColor=#6c8ebf;align=center;" vertex="1" parent="1">
          <mxGeometry x="840" y="80" width="320" height="40" as="geometry" />
        </mxCell>
        <mxCell id="4pFMJGTHoJNY8gUiROSh-9" value="&lt;b&gt;Autorun:&amp;nbsp;&lt;/b&gt;HKEY_LOCAL_MACHINE&lt;br&gt;&quot;\\Software\\Microsoft\\Windows\\CurrentVersion\\Run&quot;" style="rounded=1;whiteSpace=wrap;html=1;fillColor=#dae8fc;strokeColor=#6c8ebf;" vertex="1" parent="1">
          <mxGeometry x="840" y="160" width="320" height="40" as="geometry" />
        </mxCell>
        <mxCell id="4pFMJGTHoJNY8gUiROSh-11" value="&lt;b&gt;Unikey.exe&lt;/b&gt;&lt;br&gt;9135CD7CEBEFDB79EF6FC21D5FDEA5B170689508" style="rounded=1;whiteSpace=wrap;html=1;fillColor=#dae8fc;strokeColor=#6c8ebf;" vertex="1" parent="1">
          <mxGeometry x="840" y="360" width="320" height="40" as="geometry" />
        </mxCell>
        <mxCell id="4pFMJGTHoJNY8gUiROSh-12" value="&lt;b&gt;Location:&amp;nbsp;&lt;/b&gt;&quot;%appdata%\Explorer&quot;" style="rounded=1;whiteSpace=wrap;html=1;fillColor=#dae8fc;strokeColor=#6c8ebf;align=center;" vertex="1" parent="1">
          <mxGeometry x="840" y="240" width="320" height="40" as="geometry" />
        </mxCell>
        <mxCell id="4pFMJGTHoJNY8gUiROSh-13" value="&lt;b&gt;Location:&amp;nbsp;&lt;/b&gt;&quot;%appdata%\Explorer&quot;" style="rounded=1;whiteSpace=wrap;html=1;fillColor=#dae8fc;strokeColor=#6c8ebf;align=center;" vertex="1" parent="1">
          <mxGeometry x="840" y="360" width="320" height="40" as="geometry" />
        </mxCell>
        <mxCell id="4pFMJGTHoJNY8gUiROSh-15" value="" style="endArrow=classic;html=1;rounded=0;entryX=0;entryY=0.5;entryDx=0;entryDy=0;" edge="1" parent="1" target="4pFMJGTHoJNY8gUiROSh-4">
          <mxGeometry width="50" height="50" relative="1" as="geometry">
            <mxPoint x="360" y="380" as="sourcePoint" />
            <mxPoint x="410" y="330" as="targetPoint" />
          </mxGeometry>
        </mxCell>
        <mxCell id="4pFMJGTHoJNY8gUiROSh-16" value="" style="endArrow=classic;html=1;rounded=0;entryX=0;entryY=0.5;entryDx=0;entryDy=0;exitX=1;exitY=0.5;exitDx=0;exitDy=0;" edge="1" parent="1" source="4pFMJGTHoJNY8gUiROSh-1" target="4pFMJGTHoJNY8gUiROSh-5">
          <mxGeometry width="50" height="50" relative="1" as="geometry">
            <mxPoint x="350" y="450" as="sourcePoint" />
            <mxPoint x="430" y="450" as="targetPoint" />
          </mxGeometry>
        </mxCell>
        <mxCell id="4pFMJGTHoJNY8gUiROSh-17" value="" style="endArrow=classic;html=1;rounded=0;entryX=0;entryY=0.5;entryDx=0;entryDy=0;" edge="1" parent="1">
          <mxGeometry width="50" height="50" relative="1" as="geometry">
            <mxPoint x="360" y="380" as="sourcePoint" />
            <mxPoint x="440" y="620" as="targetPoint" />
          </mxGeometry>
        </mxCell>
        <mxCell id="4pFMJGTHoJNY8gUiROSh-18" value="" style="endArrow=classic;html=1;rounded=0;entryX=0;entryY=0.5;entryDx=0;entryDy=0;" edge="1" parent="1">
          <mxGeometry width="50" height="50" relative="1" as="geometry">
            <mxPoint x="360" y="380" as="sourcePoint" />
            <mxPoint x="440" y="140" as="targetPoint" />
          </mxGeometry>
        </mxCell>
        <mxCell id="4pFMJGTHoJNY8gUiROSh-19" value="" style="endArrow=classic;html=1;rounded=0;entryX=0;entryY=0.5;entryDx=0;entryDy=0;" edge="1" parent="1">
          <mxGeometry width="50" height="50" relative="1" as="geometry">
            <mxPoint x="360" y="380" as="sourcePoint" />
            <mxPoint x="440" y="260" as="targetPoint" />
          </mxGeometry>
        </mxCell>
        <mxCell id="4pFMJGTHoJNY8gUiROSh-20" value="" style="endArrow=classic;html=1;rounded=0;entryX=0;entryY=0.5;entryDx=0;entryDy=0;" edge="1" parent="1">
          <mxGeometry width="50" height="50" relative="1" as="geometry">
            <mxPoint x="760" y="259.5" as="sourcePoint" />
            <mxPoint x="840" y="259.5" as="targetPoint" />
          </mxGeometry>
        </mxCell>
        <mxCell id="4pFMJGTHoJNY8gUiROSh-21" value="" style="endArrow=classic;html=1;rounded=0;entryX=0;entryY=0.5;entryDx=0;entryDy=0;" edge="1" parent="1">
          <mxGeometry width="50" height="50" relative="1" as="geometry">
            <mxPoint x="760" y="379.5" as="sourcePoint" />
            <mxPoint x="840" y="379.5" as="targetPoint" />
          </mxGeometry>
        </mxCell>
        <mxCell id="4pFMJGTHoJNY8gUiROSh-22" value="" style="endArrow=classic;html=1;rounded=0;entryX=0;entryY=0.5;entryDx=0;entryDy=0;" edge="1" parent="1" target="4pFMJGTHoJNY8gUiROSh-8">
          <mxGeometry width="50" height="50" relative="1" as="geometry">
            <mxPoint x="760" y="139.5" as="sourcePoint" />
            <mxPoint x="840" y="139.5" as="targetPoint" />
          </mxGeometry>
        </mxCell>
        <mxCell id="4pFMJGTHoJNY8gUiROSh-23" value="" style="endArrow=classic;html=1;rounded=0;entryX=0;entryY=0.5;entryDx=0;entryDy=0;exitX=1;exitY=0.5;exitDx=0;exitDy=0;" edge="1" parent="1" source="4pFMJGTHoJNY8gUiROSh-2">
          <mxGeometry width="50" height="50" relative="1" as="geometry">
            <mxPoint x="760" y="219.5" as="sourcePoint" />
            <mxPoint x="840" y="180" as="targetPoint" />
          </mxGeometry>
        </mxCell>
        <mxCell id="4pFMJGTHoJNY8gUiROSh-24" value="&lt;b&gt;Location:&amp;nbsp;&lt;/b&gt;&quot;%appdata%\Explorer&quot;" style="rounded=1;whiteSpace=wrap;html=1;fillColor=#fff2cc;strokeColor=#d6b656;align=center;" vertex="1" parent="1">
          <mxGeometry x="680" y="480" width="200" height="40" as="geometry" />
        </mxCell>
        <mxCell id="4pFMJGTHoJNY8gUiROSh-25" value="&lt;b&gt;Location:&amp;nbsp;&lt;/b&gt;&quot;%appdata%\Explorer&quot;" style="rounded=1;whiteSpace=wrap;html=1;fillColor=#fff2cc;strokeColor=#d6b656;align=center;" vertex="1" parent="1">
          <mxGeometry x="680" y="600" width="200" height="40" as="geometry" />
        </mxCell>
        <mxCell id="4pFMJGTHoJNY8gUiROSh-26" value="" style="endArrow=classic;html=1;rounded=0;entryX=0;entryY=0.5;entryDx=0;entryDy=0;" edge="1" parent="1">
          <mxGeometry width="50" height="50" relative="1" as="geometry">
            <mxPoint x="600" y="499.5" as="sourcePoint" />
            <mxPoint x="680" y="499.5" as="targetPoint" />
          </mxGeometry>
        </mxCell>
        <mxCell id="4pFMJGTHoJNY8gUiROSh-27" value="" style="endArrow=classic;html=1;rounded=0;entryX=0;entryY=0.5;entryDx=0;entryDy=0;" edge="1" parent="1">
          <mxGeometry width="50" height="50" relative="1" as="geometry">
            <mxPoint x="600" y="619.5" as="sourcePoint" />
            <mxPoint x="680" y="619.5" as="targetPoint" />
          </mxGeometry>
        </mxCell>
        <mxCell id="05xt72j2d454zXAcmYmr-1" value="Log.txt" style="rounded=1;whiteSpace=wrap;html=1;fillColor=#fff2cc;strokeColor=#d6b656;" vertex="1" parent="1">
          <mxGeometry x="440" y="720" width="160" height="40" as="geometry" />
        </mxCell>
        <mxCell id="05xt72j2d454zXAcmYmr-2" value="&lt;b&gt;Location:&amp;nbsp;&lt;/b&gt;&quot;%appdata%\Explorer&quot;" style="rounded=1;whiteSpace=wrap;html=1;fillColor=#fff2cc;strokeColor=#d6b656;align=center;" vertex="1" parent="1">
          <mxGeometry x="680" y="720" width="200" height="40" as="geometry" />
        </mxCell>
        <mxCell id="05xt72j2d454zXAcmYmr-3" value="" style="endArrow=classic;html=1;rounded=0;entryX=0;entryY=0.5;entryDx=0;entryDy=0;" edge="1" parent="1">
          <mxGeometry width="50" height="50" relative="1" as="geometry">
            <mxPoint x="600" y="739.5" as="sourcePoint" />
            <mxPoint x="680" y="739.5" as="targetPoint" />
          </mxGeometry>
        </mxCell>
        <mxCell id="05xt72j2d454zXAcmYmr-4" value="" style="endArrow=classic;html=1;rounded=0;entryX=0;entryY=0.5;entryDx=0;entryDy=0;exitX=1;exitY=0.5;exitDx=0;exitDy=0;" edge="1" parent="1" source="4pFMJGTHoJNY8gUiROSh-1">
          <mxGeometry width="50" height="50" relative="1" as="geometry">
            <mxPoint x="360" y="500" as="sourcePoint" />
            <mxPoint x="440" y="740" as="targetPoint" />
          </mxGeometry>
        </mxCell>
      </root>
    </mxGraphModel>
  </diagram>
</mxfile>
